<svg xmlns="http://www.w3.org/2000/svg" enable-background="new 0 0 24 24" viewBox="0 0 24 24"><path d="M6.836,20.853c-0.418,0-0.836-0.106-1.219-0.32l-0.523-0.293c-0.361-0.202-0.49-0.658-0.288-1.021c0.201-0.36,0.658-0.491,1.021-0.288l0.522,0.292c0.316,0.175,0.678,0.173,0.992-0.011c0.315-0.186,0.497-0.503,0.497-0.871V7.598c0-0.414,0.336-0.75,0.75-0.75s0.75,0.336,0.75,0.75v10.743c0,0.9-0.463,1.709-1.238,2.164C7.706,20.736,7.271,20.853,6.836,20.853z"/><path d="M12.002,23.999c-0.313,0-0.626-0.081-0.904-0.244l-2.403-1.407c-0.357-0.21-0.478-0.669-0.269-1.026c0.209-0.358,0.668-0.477,1.026-0.269l2.403,1.407c0.09,0.054,0.198,0.055,0.292,0l8.699-5.094C20.941,17.311,21,17.207,21,17.091V6.906c0-0.114-0.06-0.22-0.156-0.276l-8.695-5.09c-0.092-0.053-0.202-0.054-0.29-0.001L3.151,6.632C3.058,6.687,3,6.791,3,6.904v10.187c0,0.112,0.06,0.22,0.152,0.273l2.688,1.574c0.357,0.21,0.478,0.669,0.269,1.026c-0.21,0.356-0.669,0.476-1.026,0.269l-2.688-1.574C1.843,18.336,1.5,17.734,1.5,17.091V6.906C1.498,6.264,1.841,5.662,2.393,5.338l8.704-5.092c0.558-0.327,1.25-0.328,1.81-0.001l8.697,5.091c0.554,0.326,0.896,0.928,0.896,1.57v10.187c-0.002,0.643-0.344,1.241-0.893,1.566l-8.702,5.096C12.627,23.918,12.314,23.999,12.002,23.999z"/><path d="M14.438,17.152c-2.248,0-4.65-0.775-4.65-2.951c0-0.414,0.336-0.75,0.75-0.75s0.75,0.336,0.75,0.75c0,1.146,1.98,1.451,3.15,1.451c2.09,0,3.15-0.225,3.15-1.451c0-0.616-0.752-0.857-2.599-1.297l-0.732-0.177c-0.224-0.055-0.461-0.107-0.704-0.161c-1.589-0.351-3.766-0.83-3.766-2.768c0-2.176,2.402-2.951,4.65-2.951s4.65,0.775,4.65,2.951c0,0.414-0.336,0.75-0.75,0.75s-0.75-0.336-0.75-0.75c0-1.146-1.98-1.451-3.15-1.451s-3.15,0.306-3.15,1.451c0,0.678,1.122,0.979,2.589,1.303c0.257,0.057,0.507,0.112,0.742,0.171l0.718,0.173c1.93,0.459,3.752,0.893,3.752,2.756C19.088,17.152,15.947,17.152,14.438,17.152z"/></svg>